<?xml version="1.0" standalone="no"?>
<!DOCTYPE svg PUBLIC "-//W3C//DTD SVG 20010904//EN"
 "http://www.w3.org/TR/2001/REC-SVG-20010904/DTD/svg10.dtd">
<svg version="1.0" xmlns="http://www.w3.org/2000/svg"
 width="225.000000pt" height="225.000000pt" viewBox="0 0 225.000000 225.000000"
 preserveAspectRatio="xMidYMid meet">
<g transform="translate(0.000000,225.000000) scale(0.100000,-0.100000)"
fill="#000000" stroke="none">
<path d="M1030 1920 c-74 -16 -185 -76 -226 -123 -61 -70 -89 -141 -88 -222 0
-90 25 -145 94 -213 44 -43 89 -70 246 -147 262 -129 314 -181 314 -310 -1
-77 -59 -162 -139 -202 -27 -13 -59 -18 -126 -18 -75 0 -98 4 -140 25 -64 31
-134 103 -165 169 -21 42 -29 51 -51 51 -15 0 -30 -7 -33 -16 -11 -29 -19
-180 -12 -227 7 -45 9 -47 71 -77 183 -87 382 -92 537 -14 70 35 158 126 191
196 74 156 57 295 -49 408 -58 62 -126 105 -320 204 -93 47 -167 91 -192 116
-72 69 -76 160 -11 235 37 42 85 59 167 58 80 -1 177 -46 224 -104 45 -56 71
-51 120 21 50 74 52 97 9 127 -82 56 -299 88 -421 63z"/>
</g>
</svg>
